# xmcd
#
# Track frame offsets:
#	150
#	12474
#	43938
#	64368
#	84210
#	115241
#	141687
#	228105
#	248048
#	264129
#	288310
# Disc length: 4066 seconds
# Revision: 1
# Processed by: cddbd v1.5.1PL2 Copyright (c) Steve Scherf et al.
#
# Submitted via: libkcddb 0.21
#
DISCID=980fe00b
DTITLE=Live in Austin, TX - 05.04.2005 - D1 - Los Lonely Boys
DYEAR=2005
DGENRE=Blues
TTITLE0=101 - Intro
TTITLE1=102 - Crazy Dream
TTITLE2=103 - Dime Mi Amor
TTITLE3=104 - I Am The Man To Beat
TTITLE4=105 - Hollywood
TTITLE5=106 - I'm Gonna Do It My Way
TTITLE6=107 - Onda
TTITLE7=108 - More Than Love Acapulco Style
TTITLE8=109 - Pancho Villa
TTITLE9=110 - What I Say
TTITLE10=111 - Oya Mamasita
EXTD=Live Music Archive
EXTT0=
EXTT1=
EXTT2=
EXTT3=
EXTT4=
EXTT5=
EXTT6=
EXTT7=
EXTT8=
EXTT9=
EXTT10=
PLAYORDER=
